<?xml version="1.0" encoding="utf-8"?>
<!-- Generator: Adobe Illustrator 15.0.0, SVG Export Plug-In . SVG Version: 6.00 Build 0)  -->
<!DOCTYPE svg PUBLIC "-//W3C//DTD SVG 1.1//EN" "http://www.w3.org/Graphics/SVG/1.1/DTD/svg11.dtd">
<svg version="1.1" id="Layer_1" xmlns="http://www.w3.org/2000/svg" xmlns:xlink="http://www.w3.org/1999/xlink" x="0px" y="0px"
	 width="40px" height="40px" viewBox="0 0 40 40" enable-background="new 0 0 40 40" xml:space="preserve">
<path fill="#DCDDDF" d="M26.334,39.969c-1.012,0.203-1.371-0.438-1.371-0.983c0-0.676,0.021-2.885,0.021-5.631
	c0-1.914-0.639-3.158-1.354-3.797c4.453-0.507,9.13-2.242,9.13-10.121c0-2.237-0.773-4.069-2.059-5.506
	c0.207-0.517,0.895-2.6-0.195-5.428c0,0-1.676-0.551-5.498,2.103c-1.598-0.456-3.305-0.686-5.009-0.692
	c-1.699,0.006-3.41,0.232-5.007,0.692c-3.822-2.654-5.5-2.103-5.5-2.103c-1.085,2.828-0.399,4.911-0.195,5.428
	c-1.276,1.437-2.058,3.271-2.058,5.508c0,7.86,4.668,9.619,9.111,10.139c-0.573,0.51-1.089,1.415-1.27,2.741
	c-1.144,0.521-4.035,1.435-5.821-1.709c0,0-1.057-1.971-3.064-2.11c0,0-1.954-0.028-0.137,1.248c0,0,1.311,0.629,2.218,3.003
	c0,0,1.174,3.657,6.741,2.421c0.009,1.711,0.026,3.328,0.026,3.815c0,0.544-0.369,1.179-1.365,0.986C5.731,37.267,0,29.574,0,20.511
	C0,9.182,8.957,0,20.001,0C31.048,0,40,9.182,40,20.511C40,29.569,34.277,37.252,26.334,39.969L26.334,39.969z"/>
</svg>
